# xmcd CD database file generated by OrangeCD 6.5
#
# Track frame offsets:
#	183
#	12563
#	26683
#	39250
#	52615
#	67443
#	80343
#	94620
#	107770
#	121590
#	134918
#	147035
#	158310
#	170938
#	181330
#	194163
#	208018
#	220175
#
# Disc length: 3105 seconds
#
# Revision: 5
# Processed by: cddbd v1.5.2PL0 Copyright (c) Steve Scherf et al.
# Submitted via: OrangeCD 6.5
#
DISCID=010c1f12
DTITLE=Jimmy Rogers - That's All Right
DYEAR=1995
DGENRE=Chicago Blues
TTITLE0=Goin' Away Baby
TTITLE1=Today, Today Blues
TTITLE2=That's All Right
TTITLE3=The World Is In A Tangle
TTITLE4=Money, Marbles And Chalk
TTITLE5=She Loves Another Man
TTITLE6=Back Door Friend
TTITLE7=Left Me With A Broken Heart
TTITLE8=Out On The Road
TTITLE9=Act Like You Love Me
TTITLE10=Chicago Bound
TTITLE11=You're The One
TTITLE12=Walking By Myself
TTITLE13=My Baby Don't Love Me No More
TTITLE14=This Has Never Been
TTITLE15=My Last Meal
TTITLE16=You Don't Know
TTITLE17=Rock This House
EXTD=
EXTT0=
EXTT1=
EXTT2=
EXTT3=
EXTT4=
EXTT5=
EXTT6=
EXTT7=
EXTT8=
EXTT9=
EXTT10=
EXTT11=
EXTT12=
EXTT13=
EXTT14=
EXTT15=
EXTT16=
EXTT17=
PLAYORDER=
